<?xml version="1.0" encoding="UTF-8" standalone="no"?>
<!-- Generator: Adobe Illustrator 19.2.0, SVG Export Plug-In . SVG Version: 6.00 Build 0)  -->

<svg
   xmlns:dc="http://purl.org/dc/elements/1.1/"
   xmlns:cc="http://creativecommons.org/ns#"
   xmlns:rdf="http://www.w3.org/1999/02/22-rdf-syntax-ns#"
   xmlns:svg="http://www.w3.org/2000/svg"
   xmlns="http://www.w3.org/2000/svg"
   xmlns:sodipodi="http://sodipodi.sourceforge.net/DTD/sodipodi-0.dtd"
   xmlns:inkscape="http://www.inkscape.org/namespaces/inkscape"
   version="1.1"
   x="0px"
   y="0px"
   width="800px"
   height="142px"
   viewBox="0 0 800 142"
   enable-background="new 0 0 800 142"
   xml:space="preserve"
   id="svg47"
   sodipodi:docname="due.svg"
   inkscape:version="0.92.4 (5da689c313, 2019-01-14)"
   inkscape:export-filename="/home/lomo/Tempest/Development/Dynatrace/Chrome_ServiceDetails/Assets/due16.png"
   inkscape:export-xdpi="11.06"
   inkscape:export-ydpi="11.06"><metadata
   id="metadata53"><rdf:RDF><cc:Work
       rdf:about=""><dc:format>image/svg+xml</dc:format><dc:type
         rdf:resource="http://purl.org/dc/dcmitype/StillImage" /><dc:title /></cc:Work></rdf:RDF></metadata><defs
   id="defs51">
	

		
		
	</defs><sodipodi:namedview
   pagecolor="#ffffff"
   bordercolor="#666666"
   borderopacity="1"
   objecttolerance="10"
   gridtolerance="10"
   guidetolerance="10"
   inkscape:pageopacity="0"
   inkscape:pageshadow="2"
   inkscape:window-width="2657"
   inkscape:window-height="1434"
   id="namedview49"
   showgrid="false"
   inkscape:zoom="2.3334524"
   inkscape:cx="23.657331"
   inkscape:cy="7.3391124"
   inkscape:window-x="4894"
   inkscape:window-y="460"
   inkscape:window-maximized="0"
   inkscape:current-layer="svg47" />
<g
   id="Background"
   inkscape:export-xdpi="33.189999"
   inkscape:export-ydpi="33.189999">
</g>
<g
   id="Vertical"
   inkscape:export-xdpi="33.189999"
   inkscape:export-ydpi="33.189999">
</g>
<g
   id="Horizontal"
   inkscape:export-xdpi="33.189999"
   inkscape:export-ydpi="33.189999">
</g>
<g
   id="Dynatrace_Color"
   inkscape:export-xdpi="33.189999"
   inkscape:export-ydpi="33.189999">
</g>
<g
   id="g42"
   transform="matrix(1.0030961,0,0,0.99082041,206.55782,-8.5620637)"
   inkscape:export-xdpi="33.189999"
   inkscape:export-ydpi="33.189999">
			<path
   d="m 47.7,12.7 c -1.8,9.5 -4,23.6 -5.2,37.9 -2.1,25.2 -0.8,42.1 -0.8,42.1 L 6.2,126.4 c 0,0 -2.7,-18.9 -4.1,-40.2 C 1.3,73 1,61.4 1,54.4 1,54 1.2,53.6 1.2,53.2 1.2,52.7 1.8,48 6.4,43.6 11.4,38.8 48.3,9.9 47.7,12.7 Z"
   id="path30"
   inkscape:connector-curvature="0"
   style="fill:#1496ff" />
			<path
   d="m 47.7,12.7 c -1.8,9.5 -4,23.6 -5.2,37.9 0,0 -39.3,-4.7 -41.5,4.8 0,-0.5 0.7,-6.3 5.3,-10.7 5,-4.8 42,-34.8 41.4,-32 z"
   id="path32"
   inkscape:connector-curvature="0"
   style="fill:#1284ea" />
			<path
   d="m 1,53.1 c 0,0.7 0,1.4 0,2.2 0.4,-1.7 1.1,-2.9 2.5,-4.8 2.9,-3.7 7.6,-4.7 9.5,-4.9 9.6,-1.3 23.8,-2.8 38.1,-3.2 25.3,-0.8 42,1.3 42,1.3 L 128.6,10 C 128.6,10 110,6.5 88.8,4 74.9,2.3 62.7,1.4 55.8,1 55.3,1 50.4,0.4 45.8,4.8 40.8,9.6 15.4,33.7 5.2,43.4 0.6,47.8 1,52.7 1,53.1 Z"
   id="path34"
   inkscape:connector-curvature="0"
   style="fill:#b4dc00" />
			<path
   d="m 127.3,96.2 c -9.6,1.3 -23.8,2.9 -38.1,3.4 -25.3,0.8 -42.1,-1.3 -42.1,-1.3 l -35.5,33.8 c 0,0 18.8,3.7 40,6.1 13,1.5 24.5,2.3 31.5,2.7 0.5,0 1.3,-0.4 1.8,-0.4 0.5,0 5.4,-0.9 10,-5.3 5,-4.8 35.2,-39.3 32.4,-39 z"
   id="path36"
   inkscape:connector-curvature="0"
   style="fill:#6f2da8" />
			<path
   d="m 127.3,96.2 c -9.6,1.3 -23.8,2.9 -38.1,3.4 0,0 2.7,39.5 -6.8,41.2 0.5,0 7,-0.3 11.6,-4.7 5,-4.8 36.1,-40.2 33.3,-39.9 z"
   id="path38"
   inkscape:connector-curvature="0"
   style="fill:#591f91" />
			<path
   d="m 84.5,141 c -0.7,0 -1.4,-0.1 -2.2,-0.1 1.8,-0.3 3,-0.9 4.9,-2.3 3.8,-2.7 5,-7.4 5.4,-9.3 1.7,-9.5 4,-23.6 5.1,-37.9 2,-25.2 0.8,-42 0.8,-42 L 134,15.6 c 0,0 2.6,18.8 4.1,40.1 0.9,13.9 1.2,26.2 1.3,33 0,0.5 0.4,5.4 -4.2,9.8 -5,4.8 -30.4,29 -40.5,38.7 -4.8,4.4 -9.7,3.8 -10.2,3.8 z"
   id="path40"
   inkscape:connector-curvature="0"
   style="fill:#73be28" />
		</g>
<path
   id="path966"
   d="m 338.90723,59.940683 -12.4265,-28.154152 c -5.69923,1.248008 -11.48461,2.422542 -17.29767,2.994208 -1.35172,0.133048 -2.75564,0.272296 -4.11153,0.118151 -1.87198,-0.212472 -3.73143,-0.796776 -5.52903,-1.331561 -2.71361,-0.807095 -5.34578,-1.902717 -8.06121,-2.682214 -1.92812,-0.553363 -4.01155,-0.866132 -6.0125,-0.962574 -3.14775,-0.151363 -6.22578,0.837262 -8.9279,2.399088 -2.61834,-1.418722 -5.60004,-2.418164 -8.60628,-2.452973 -2.50504,-0.0292 -5.1124,0.362275 -7.52424,1.041212 -3.80141,1.07062 -7.41198,2.812166 -11.35122,3.428186 -0.42108,0.282864 -1.87879,-0.02396 -2.36773,-0.06675 -1.01913,-0.08871 -2.03463,-0.219172 -3.04696,-0.3628 -2.34997,-0.333667 -4.68794,-0.74959 -7.01858,-1.195158 -2.90288,-0.55491 -5.78617,-1.190005 -8.67131,-1.826386 -4.02276,9.118518 -8.04738,18.236025 -12.0712,27.35377 l -2.27999,5.1669 c 8.19695,2.991115 16.19708,6.673294 22.4641,12.891462 -1.67384,1.998896 -2.21448,4.98099 -0.82649,7.274865 1.52871,2.526983 4.79993,3.10974 7.36422,1.825102 -1.38513,2.461481 -1.15175,5.818501 1.20788,7.624001 2.29515,1.756001 5.54652,1.198259 7.59916,-0.649281 -0.685,2.322757 -0.0141,4.996198 2.07691,6.394286 2.00591,1.341365 4.67801,1.05643 6.61109,-0.270485 -1.10816,3.03133 0.24016,6.69237 3.58785,7.52833 2.84023,0.70911 5.16984,-0.85865 6.91626,-2.8952 5.60551,2.14562 12.96059,3.66464 17.12799,-1.88879 4.49188,0.88239 9.12369,-1.249302 11.47966,-5.131295 5.29279,0.195191 10.34018,-3.919411 11.07426,-9.094558 5.31654,-1.76373 7.96959,-6.986063 6.51057,-12.288344 z m -28.64681,20.542538 c -1.25852,1.189232 -3.61058,1.594065 -5.22386,2.130921 -0.30961,2.178618 -0.24278,4.718226 -2.05707,6.262523 -2.08215,1.772487 -4.43055,1.360956 -6.9455,1.246984 -1.19665,1.971299 -2.13565,4.029758 -4.3222,5.104491 -1.89651,0.932144 -4.46838,-0.02705 -6.44061,-0.411528 -0.79569,1.060812 -1.52114,2.277114 -2.45518,3.223961 -2.25077,2.282017 -6.03547,1.031413 -8.65067,0.164001 1.59424,-4.720813 -2.88277,-9.102799 -7.59184,-6.951779 1.37103,-1.996313 1.67854,-4.761544 0.33023,-6.85017 -1.49451,-2.314772 -4.50755,-2.930791 -6.97315,-1.851401 2.34552,-2.65746 2.57394,-7.211173 -0.75732,-9.226825 -3.14042,-1.899884 -6.35707,-0.0297 -8.43973,2.392637 0.8411,-3.133208 -0.91629,-6.578923 -4.32195,-7.064713 -2.8115,-0.400965 -4.84951,1.243628 -6.54399,3.215189 -6.54373,-6.339626 -15.05107,-10.329409 -18.44421,-11.762316 l 9.9293,-22.501723 c 2.91096,0.614734 5.83393,1.180212 8.77022,1.664718 3.1031,0.512104 6.68235,1.341618 9.83505,0.836226 3.57481,-0.559289 7.08176,-1.826909 10.47801,-3.028768 3.50903,-1.24157 7.30521,-1.904001 10.91135,-0.680223 -2.7431,2.75157 -5.13641,5.873936 -7.50779,8.935965 -2.60004,3.35727 -5.21942,6.763797 -7.42764,10.390269 -0.4725,0.77614 -1.30708,1.843665 -1.08779,2.810107 0.5683,2.505573 4.99387,3.226544 7.06531,3.132684 1.80723,-0.08197 3.54532,-1.072678 5.06984,-1.948617 2.13434,-1.226099 4.16453,-2.621091 6.24222,-3.93616 2.33458,-1.47751 4.74511,-2.952949 7.37204,-3.870396 2.8371,-0.990159 5.52381,-0.794718 8.29512,0.391931 5.10901,5.304078 10.21253,10.613321 15.31421,15.924622 2.52514,2.628565 9.73978,8.317887 5.5776,12.25739 z"
   inkscape:connector-curvature="0"
   style="fill:#191919;stroke:#ffffff;stroke-width:4;stroke-miterlimit:4;stroke-dasharray:none;stroke-opacity:1"
   inkscape:export-xdpi="33.189999"
   inkscape:export-ydpi="33.189999" /></svg>